<svg xmlns="http://www.w3.org/2000/svg"  viewBox="0 0 48 48" width="48px" height="48px"><path d="M 24 3 C 23.63225 3 23.264563 3.1338437 22.976562 3.4023438 L 16.001953 9.9121094 L 9.7128906 9.015625 C 9.2608906 8.953625 8.7958906 9.0999688 8.4628906 9.4179688 C 8.1298906 9.7369688 7.9618125 10.189438 8.0078125 10.648438 L 8.9042969 19.621094 L 3.828125 22.158203 C 3.454125 22.345203 3.1765938 22.678078 3.0585938 23.080078 C 2.9425937 23.480078 2.9978906 23.913484 3.2128906 24.271484 L 5.9511719 28.837891 L 5.0078125 37.332031 C 4.9588125 37.771031 5.1061563 38.21125 5.4101562 38.53125 C 5.7151562 38.85225 6.1428906 39.023094 6.5878906 38.996094 L 14.066406 38.558594 C 14.170406 38.552594 14.270187 38.535766 14.367188 38.509766 C 15.696188 42.959766 20.459 45 24 45 C 27.541 45 32.303813 42.959719 33.632812 38.511719 C 33.729813 38.537719 33.829594 38.554547 33.933594 38.560547 L 41.412109 38.998047 C 41.440109 38.999047 41.471 39 41.5 39 C 41.91 39 42.303891 38.83125 42.587891 38.53125 C 42.892891 38.21125 43.039234 37.772984 42.990234 37.333984 L 42.039062 28.773438 L 44.841797 23.169922 C 45.035797 22.781922 45.052719 22.327781 44.886719 21.925781 C 44.720719 21.524781 44.386609 21.214172 43.974609 21.076172 L 39.113281 19.455078 L 39.992188 10.648438 C 40.038187 10.189438 39.872063 9.7369687 39.539062 9.4179688 C 39.206063 9.0989688 38.742063 8.950625 38.289062 9.015625 L 32 9.9121094 L 25.023438 3.4023438 C 24.735437 3.1338438 24.36775 3 24 3 z M 24 16 C 28.121 16 31 19.29 31 24 L 31 28.683594 C 31 29.170594 31.236766 29.626203 31.634766 29.908203 C 32.032766 30.190203 32.541953 30.261656 33.001953 30.097656 C 33.187953 30.031656 33.35 30 33.5 30 C 34.327 30 35 30.673 35 31.5 C 35 32.327 34.327 33 33.5 33 C 33.35 33 33.187953 32.968344 33.001953 32.902344 C 32.542953 32.739344 32.032766 32.809797 31.634766 33.091797 C 31.236766 33.373797 31 33.829406 31 34.316406 L 31 36 C 31 40.371 26.706 42 24 42 C 21.294 42 17 40.371 17 36 L 17 34.316406 C 17 33.829406 16.763234 33.373797 16.365234 33.091797 C 16.108234 32.909797 15.805 32.816406 15.5 32.816406 C 15.332 32.816406 15.161047 32.844344 14.998047 32.902344 C 14.812047 32.968344 14.65 33 14.5 33 C 13.673 33 13 32.327 13 31.5 C 13 30.673 13.673 30 14.5 30 C 14.65 30 14.812047 30.031656 14.998047 30.097656 C 15.456047 30.258656 15.966234 30.190203 16.365234 29.908203 C 16.763234 29.626203 17 29.170594 17 28.683594 L 17 24 C 17 19.29 19.879 16 24 16 z M 20.527344 20.998047 C 19.942203 20.987406 19.382859 21.322875 19.130859 21.890625 C 18.794859 22.647625 19.135578 23.535094 19.892578 23.871094 C 21.525578 24.596094 22.763953 24.958984 24.001953 24.958984 C 25.239953 24.958984 26.477375 24.596094 28.109375 23.871094 C 28.866375 23.534094 29.207094 22.646625 28.871094 21.890625 C 28.533094 21.133625 27.648625 20.790906 26.890625 21.128906 C 24.406625 22.233906 23.593375 22.233906 21.109375 21.128906 C 20.919125 21.044406 20.722391 21.001594 20.527344 20.998047 z M 21.5 26 A 2.5 2.5 0 0 0 21.5 31 A 2.5 2.5 0 0 0 21.5 26 z M 26.5 26 A 2.5 2.5 0 0 0 26.5 31 A 2.5 2.5 0 0 0 26.5 26 z"/></svg>